<?xml version="1.0" encoding="utf-8" standalone="no"?>
<!DOCTYPE svg PUBLIC "-//W3C//DTD SVG 1.1//EN"
  "http://www.w3.org/Graphics/SVG/1.1/DTD/svg11.dtd">
<svg xmlns:xlink="http://www.w3.org/1999/xlink" width="288pt" height="216pt" viewBox="0 0 288 216" xmlns="http://www.w3.org/2000/svg" version="1.1">
 <metadata>
  <rdf:RDF xmlns:dc="http://purl.org/dc/elements/1.1/" xmlns:cc="http://creativecommons.org/ns#" xmlns:rdf="http://www.w3.org/1999/02/22-rdf-syntax-ns#">
   <cc:Work>
    <dc:type rdf:resource="http://purl.org/dc/dcmitype/StillImage"/>
    <dc:date>2023-06-22T17:04:44.822726</dc:date>
    <dc:format>image/svg+xml</dc:format>
    <dc:creator>
     <cc:Agent>
      <dc:title>Matplotlib v3.7.0, https://matplotlib.org/</dc:title>
     </cc:Agent>
    </dc:creator>
   </cc:Work>
  </rdf:RDF>
 </metadata>
 <defs>
  <style type="text/css">*{stroke-linejoin: round; stroke-linecap: butt}</style>
 </defs>
 <g id="figure_1">
  <g id="patch_1">
   <path d="M 0 216 
L 288 216 
L 288 0 
L 0 0 
z
" style="fill: #ffffff"/>
  </g>
  <g id="axes_1">
   <g id="patch_2">
    <path d="M 36 192.24 
L 259.2 192.24 
L 259.2 25.92 
L 36 25.92 
z
" style="fill: #ffffff"/>
   </g>
   <g id="line2d_1">
    <path d="M 46.145455 184.68 
L 46.145455 184.68 
L 51.348252 184.68 
L 51.348252 184.68 
L 56.551049 184.68 
L 56.551049 184.68 
L 61.753846 184.68 
L 61.753846 184.68 
L 66.956643 184.68 
L 66.956643 184.68 
L 72.159441 184.68 
L 72.159441 184.68 
L 77.362238 184.68 
L 77.362238 184.68 
L 82.565035 184.68 
L 82.565035 184.68 
L 87.767832 184.68 
L 87.767832 184.68 
L 92.970629 184.68 
L 92.970629 184.68 
L 98.173427 184.68 
L 98.173427 184.68 
L 103.376224 184.68 
L 103.376224 184.68 
L 108.579021 184.68 
L 108.579021 184.68 
L 113.781818 184.68 
L 113.781818 184.68 
L 118.984615 184.68 
L 118.984615 184.68 
L 124.187413 184.68 
L 124.187413 184.68 
L 129.39021 184.68 
L 129.39021 184.68 
L 134.593007 184.68 
L 134.593007 184.68 
L 139.795804 184.68 
L 139.795804 184.68 
L 144.998601 184.68 
L 144.998601 184.68 
L 150.201399 184.68 
L 150.201399 184.68 
L 155.404196 184.68 
L 155.404196 184.68 
L 160.606993 184.68 
L 160.606993 184.68 
L 165.80979 184.68 
L 165.80979 184.68 
L 171.012587 184.68 
L 171.012587 184.68 
L 176.215385 184.68 
L 176.215385 184.68 
L 181.418182 184.68 
L 181.418182 184.68 
L 186.620979 184.68 
L 186.620979 184.68 
L 191.823776 184.68 
L 191.823776 184.68 
L 197.026573 184.68 
L 197.026573 184.68 
L 202.229371 184.68 
L 202.229371 184.68 
L 207.432168 184.68 
L 207.432168 184.68 
L 212.634965 184.68 
L 212.634965 184.68 
L 217.837762 184.68 
L 217.837762 184.68 
L 223.040559 184.68 
L 223.040559 184.68 
L 228.243357 184.68 
L 228.243357 184.68 
L 233.446154 184.68 
L 233.446154 184.68 
L 238.648951 184.68 
L 238.648951 184.68 
L 243.851748 184.68 
L 243.851748 184.68 
L 249.054545 184.68 
" clip-path="url(#pe043091a37)" style="fill: none; stroke: #fff5f5; stroke-linecap: square"/>
   </g>
   <g id="line2d_2">
    <path d="M 46.145455 184.68 
L 46.145455 184.68 
L 51.348252 184.68 
L 51.348252 184.68 
L 56.551049 184.68 
L 56.551049 184.68 
L 61.753846 184.68 
L 61.753846 184.68 
L 66.956643 184.68 
L 66.956643 184.68 
L 72.159441 184.68 
L 72.159441 184.68 
L 77.362238 184.68 
L 77.362238 184.68 
L 82.565035 184.68 
L 82.565035 184.68 
L 87.767832 184.68 
L 87.767832 184.68 
L 92.970629 184.68 
L 92.970629 184.68 
L 98.173427 184.68 
L 98.173427 184.68 
L 103.376224 184.68 
L 103.376224 184.68 
L 108.579021 184.68 
L 108.579021 184.68 
L 113.781818 184.68 
L 113.781818 184.68 
L 118.984615 184.68 
L 118.984615 184.68 
L 124.187413 184.68 
L 124.187413 184.68 
L 129.39021 184.68 
L 129.39021 184.68 
L 134.593007 184.68 
L 134.593007 184.68 
L 139.795804 184.68 
L 139.795804 184.68 
L 144.998601 184.68 
L 144.998601 184.68 
L 150.201399 184.68 
L 150.201399 184.68 
L 155.404196 184.68 
L 155.404196 184.68 
L 160.606993 184.68 
L 160.606993 184.68 
L 165.80979 184.68 
L 165.80979 184.68 
L 171.012587 184.68 
L 171.012587 184.68 
L 176.215385 184.68 
L 176.215385 184.68 
L 181.418182 184.68 
L 181.418182 184.68 
L 186.620979 184.68 
L 186.620979 184.68 
L 191.823776 184.68 
L 191.823776 184.68 
L 197.026573 184.68 
L 197.026573 184.68 
L 202.229371 184.68 
L 202.229371 184.68 
L 207.432168 184.68 
L 207.432168 184.68 
L 212.634965 184.68 
L 212.634965 184.68 
L 217.837762 184.68 
L 217.837762 184.68 
L 223.040559 184.68 
L 223.040559 184.68 
L 228.243357 184.68 
L 228.243357 184.68 
L 233.446154 184.68 
L 233.446154 184.68 
L 238.648951 184.68 
L 238.648951 184.68 
L 243.851748 184.68 
L 243.851748 184.68 
L 249.054545 184.68 
" clip-path="url(#pe043091a37)" style="fill: none; stroke: #ffe3e3; stroke-linecap: square"/>
   </g>
   <g id="line2d_3">
    <path d="M 46.145455 184.68 
L 46.145455 184.68 
L 51.348252 184.68 
L 51.348252 184.68 
L 56.551049 184.68 
L 56.551049 184.68 
L 61.753846 184.68 
L 61.753846 184.68 
L 66.956643 184.68 
L 66.956643 184.68 
L 72.159441 184.68 
L 72.159441 184.68 
L 77.362238 184.68 
L 77.362238 184.68 
L 82.565035 184.68 
L 82.565035 184.68 
L 87.767832 184.68 
L 87.767832 184.68 
L 92.970629 184.68 
L 92.970629 184.68 
L 98.173427 184.68 
L 98.173427 184.68 
L 103.376224 184.68 
L 103.376224 184.68 
L 108.579021 184.68 
L 108.579021 184.68 
L 113.781818 184.68 
L 113.781818 184.68 
L 118.984615 184.68 
L 118.984615 184.68 
L 124.187413 184.68 
L 124.187413 184.68 
L 129.39021 184.68 
L 129.39021 184.68 
L 134.593007 184.68 
L 134.593007 184.68 
L 139.795804 184.68 
L 139.795804 184.68 
L 144.998601 184.68 
L 144.998601 184.68 
L 150.201399 184.68 
L 150.201399 184.68 
L 155.404196 184.68 
L 155.404196 184.68 
L 160.606993 184.68 
L 160.606993 184.68 
L 165.80979 184.68 
L 165.80979 184.68 
L 171.012587 184.68 
L 171.012587 184.68 
L 176.215385 184.68 
L 176.215385 184.68 
L 181.418182 184.68 
L 181.418182 184.68 
L 186.620979 184.68 
L 186.620979 184.68 
L 191.823776 184.68 
L 191.823776 184.68 
L 197.026573 184.68 
L 197.026573 184.68 
L 202.229371 184.68 
L 202.229371 184.68 
L 207.432168 184.68 
L 207.432168 184.68 
L 212.634965 184.68 
L 212.634965 184.68 
L 217.837762 184.68 
L 217.837762 184.68 
L 223.040559 184.68 
L 223.040559 184.68 
L 228.243357 184.68 
L 228.243357 184.68 
L 233.446154 184.68 
L 233.446154 184.68 
L 238.648951 184.68 
L 238.648951 184.68 
L 243.851748 184.68 
L 243.851748 184.68 
L 249.054545 184.68 
" clip-path="url(#pe043091a37)" style="fill: none; stroke: #ffc9c9; stroke-linecap: square"/>
   </g>
   <g id="line2d_4">
    <path d="M 46.145455 184.679261 
L 46.145455 184.647103 
L 51.348252 184.647103 
L 51.348252 184.647256 
L 56.551049 184.647256 
L 56.551049 184.669306 
L 61.753846 184.669306 
L 61.753846 184.670852 
L 66.956643 184.670852 
L 66.956643 184.649754 
L 72.159441 184.649754 
L 72.159441 184.668571 
L 77.362238 184.668571 
L 77.362238 184.64954 
L 82.565035 184.64954 
L 82.565035 184.649564 
L 87.767832 184.649564 
L 87.767832 184.66917 
L 92.970629 184.66917 
L 92.970629 184.651894 
L 98.173427 184.651894 
L 98.173427 184.670578 
L 103.376224 184.670578 
L 103.376224 184.652578 
L 108.579021 184.652578 
L 108.579021 184.655138 
L 113.781818 184.655138 
L 113.781818 184.654278 
L 118.984615 184.654278 
L 118.984615 184.65675 
L 124.187413 184.65675 
L 124.187413 184.656109 
L 129.39021 184.656109 
L 129.39021 184.656523 
L 134.593007 184.656523 
L 134.593007 184.657428 
L 139.795804 184.657428 
L 139.795804 184.658681 
L 144.998601 184.658681 
L 144.998601 184.67087 
L 150.201399 184.67087 
L 150.201399 184.659885 
L 155.404196 184.659885 
L 155.404196 184.661074 
L 160.606993 184.661074 
L 160.606993 184.661993 
L 165.80979 184.661993 
L 165.80979 184.662528 
L 171.012587 184.662528 
L 171.012587 184.663478 
L 176.215385 184.663478 
L 176.215385 184.667001 
L 181.418182 184.667001 
L 181.418182 184.665242 
L 186.620979 184.665242 
L 186.620979 184.665709 
L 191.823776 184.665709 
L 191.823776 184.666478 
L 197.026573 184.666478 
L 197.026573 184.667714 
L 202.229371 184.667714 
L 202.229371 184.668481 
L 207.432168 184.668481 
L 207.432168 184.669016 
L 212.634965 184.669016 
L 212.634965 184.670088 
L 217.837762 184.670088 
L 217.837762 184.670831 
L 223.040559 184.670831 
L 223.040559 184.672002 
L 228.243357 184.672002 
L 228.243357 184.672867 
L 233.446154 184.672867 
L 233.446154 184.673852 
L 238.648951 184.673852 
L 238.648951 184.674846 
L 243.851748 184.674846 
L 243.851748 184.675682 
L 249.054545 184.675682 
" clip-path="url(#pe043091a37)" style="fill: none; stroke: #ffa8a8; stroke-linecap: square"/>
   </g>
   <g id="line2d_5">
    <path d="M 46.145455 184.158074 
L 46.145455 169.957033 
L 51.348252 169.957033 
L 51.348252 160.324294 
L 56.551049 160.324294 
L 56.551049 165.735533 
L 61.753846 165.735533 
L 61.753846 161.822592 
L 66.956643 161.822592 
L 66.956643 157.513095 
L 72.159441 157.513095 
L 72.159441 166.982147 
L 77.362238 166.982147 
L 77.362238 159.051157 
L 82.565035 159.051157 
L 82.565035 159.247084 
L 87.767832 159.247084 
L 87.767832 165.382779 
L 92.970629 165.382779 
L 92.970629 158.317091 
L 98.173427 158.317091 
L 98.173427 164.573985 
L 103.376224 164.573985 
L 103.376224 161.692662 
L 108.579021 161.692662 
L 108.579021 161.562774 
L 113.781818 161.562774 
L 113.781818 160.493181 
L 118.984615 160.493181 
L 118.984615 160.755163 
L 124.187413 160.755163 
L 124.187413 161.924832 
L 129.39021 161.924832 
L 129.39021 162.150372 
L 134.593007 162.150372 
L 134.593007 164.194909 
L 139.795804 164.194909 
L 139.795804 163.268925 
L 144.998601 163.268925 
L 144.998601 168.90321 
L 150.201399 168.90321 
L 150.201399 164.610931 
L 155.404196 164.610931 
L 155.404196 165.639675 
L 160.606993 165.639675 
L 160.606993 167.283821 
L 165.80979 167.283821 
L 165.80979 167.193444 
L 171.012587 167.193444 
L 171.012587 168.131225 
L 176.215385 168.131225 
L 176.215385 169.689623 
L 181.418182 169.689623 
L 181.418182 170.335836 
L 186.620979 170.335836 
L 186.620979 170.469366 
L 191.823776 170.469366 
L 191.823776 171.294325 
L 197.026573 171.294325 
L 197.026573 172.237881 
L 202.229371 172.237881 
L 202.229371 173.08137 
L 207.432168 173.08137 
L 207.432168 173.825163 
L 212.634965 173.825163 
L 212.634965 174.749495 
L 217.837762 174.749495 
L 217.837762 175.629841 
L 223.040559 175.629841 
L 223.040559 176.513443 
L 228.243357 176.513443 
L 228.243357 177.430169 
L 233.446154 177.430169 
L 233.446154 178.43882 
L 238.648951 178.43882 
L 238.648951 179.521144 
L 243.851748 179.521144 
L 243.851748 180.357838 
L 249.054545 180.357838 
" clip-path="url(#pe043091a37)" style="fill: none; stroke: #ff8787; stroke-linecap: square"/>
   </g>
   <g id="line2d_6">
    <path d="M 46.145455 183.806867 
L 46.145455 163.652203 
L 51.348252 163.652203 
L 51.348252 138.891157 
L 56.551049 138.891157 
L 56.551049 140.64644 
L 61.753846 140.64644 
L 61.753846 141.743057 
L 66.956643 141.743057 
L 66.956643 137.46102 
L 72.159441 137.46102 
L 72.159441 143.574662 
L 77.362238 143.574662 
L 77.362238 133.400037 
L 82.565035 133.400037 
L 82.565035 133.247669 
L 87.767832 133.247669 
L 87.767832 143.884879 
L 92.970629 143.884879 
L 92.970629 133.069208 
L 98.173427 133.069208 
L 98.173427 142.55282 
L 103.376224 142.55282 
L 103.376224 137.171791 
L 108.579021 137.171791 
L 108.579021 140.233236 
L 113.781818 140.233236 
L 113.781818 136.115418 
L 118.984615 136.115418 
L 118.984615 136.189434 
L 124.187413 136.189434 
L 124.187413 139.541826 
L 129.39021 139.541826 
L 129.39021 141.751911 
L 134.593007 141.751911 
L 134.593007 143.701048 
L 139.795804 143.701048 
L 139.795804 143.646927 
L 144.998601 143.646927 
L 144.998601 149.635268 
L 150.201399 149.635268 
L 150.201399 145.318956 
L 155.404196 145.318956 
L 155.404196 147.299901 
L 160.606993 147.299901 
L 160.606993 149.587378 
L 165.80979 149.587378 
L 165.80979 149.953023 
L 171.012587 149.953023 
L 171.012587 151.965162 
L 176.215385 151.965162 
L 176.215385 154.032141 
L 181.418182 154.032141 
L 181.418182 155.492215 
L 186.620979 155.492215 
L 186.620979 156.316317 
L 191.823776 156.316317 
L 191.823776 158.063977 
L 197.026573 158.063977 
L 197.026573 159.749475 
L 202.229371 159.749475 
L 202.229371 161.418087 
L 207.432168 161.418087 
L 207.432168 163.10321 
L 212.634965 163.10321 
L 212.634965 164.937925 
L 217.837762 164.937925 
L 217.837762 166.516585 
L 223.040559 166.516585 
L 223.040559 168.258176 
L 228.243357 168.258176 
L 228.243357 170.025826 
L 233.446154 170.025826 
L 233.446154 172.035742 
L 238.648951 172.035742 
L 238.648951 174.367441 
L 243.851748 174.367441 
L 243.851748 176.039995 
L 249.054545 176.039995 
" clip-path="url(#pe043091a37)" style="fill: none; stroke: #ff6b6b; stroke-linecap: square"/>
   </g>
   <g id="line2d_7">
    <path d="M 46.145455 183.424466 
L 46.145455 157.972405 
L 51.348252 157.972405 
L 51.348252 120.139013 
L 56.551049 120.139013 
L 56.551049 117.613971 
L 61.753846 117.613971 
L 61.753846 120.749164 
L 66.956643 120.749164 
L 66.956643 117.387781 
L 72.159441 117.387781 
L 72.159441 120.839114 
L 77.362238 120.839114 
L 77.362238 107.788842 
L 82.565035 107.788842 
L 82.565035 113.020688 
L 87.767832 113.020688 
L 87.767832 121.227572 
L 92.970629 121.227572 
L 92.970629 109.326606 
L 98.173427 109.326606 
L 98.173427 119.683309 
L 103.376224 119.683309 
L 103.376224 114.869912 
L 108.579021 114.869912 
L 108.579021 115.596743 
L 113.781818 115.596743 
L 113.781818 111.149251 
L 118.984615 111.149251 
L 118.984615 112.99097 
L 124.187413 112.99097 
L 124.187413 115.912405 
L 129.39021 115.912405 
L 129.39021 120.365949 
L 134.593007 120.365949 
L 134.593007 122.494282 
L 139.795804 122.494282 
L 139.795804 124.397186 
L 144.998601 124.397186 
L 144.998601 130.035647 
L 150.201399 130.035647 
L 150.201399 126.510635 
L 155.404196 126.510635 
L 155.404196 129.421465 
L 160.606993 129.421465 
L 160.606993 131.492257 
L 165.80979 131.492257 
L 165.80979 133.178546 
L 171.012587 133.178546 
L 171.012587 135.742776 
L 176.215385 135.742776 
L 176.215385 138.238431 
L 181.418182 138.238431 
L 181.418182 140.562093 
L 186.620979 140.562093 
L 186.620979 142.192294 
L 191.823776 142.192294 
L 191.823776 144.83627 
L 197.026573 144.83627 
L 197.026573 147.288641 
L 202.229371 147.288641 
L 202.229371 149.82216 
L 207.432168 149.82216 
L 207.432168 152.393766 
L 212.634965 152.393766 
L 212.634965 155.06132 
L 217.837762 155.06132 
L 217.837762 157.474834 
L 223.040559 157.474834 
L 223.040559 160.084353 
L 228.243357 160.084353 
L 228.243357 162.592868 
L 233.446154 162.592868 
L 233.446154 165.582071 
L 238.648951 165.582071 
L 238.648951 169.211616 
L 243.851748 169.211616 
L 243.851748 171.722151 
L 249.054545 171.722151 
" clip-path="url(#pe043091a37)" style="fill: none; stroke: #fa5252; stroke-linecap: square"/>
   </g>
   <g id="line2d_8">
    <path d="M 46.145455 183.068026 
L 46.145455 152.047422 
L 51.348252 152.047422 
L 51.348252 98.387131 
L 56.551049 98.387131 
L 56.551049 95.191406 
L 61.753846 95.191406 
L 61.753846 97.068518 
L 66.956643 97.068518 
L 66.956643 94.877423 
L 72.159441 94.877423 
L 72.159441 97.233715 
L 77.362238 97.233715 
L 77.362238 81.658071 
L 82.565035 81.658071 
L 82.565035 88.732545 
L 87.767832 88.732545 
L 87.767832 95.207739 
L 92.970629 95.207739 
L 92.970629 84.714875 
L 98.173427 84.714875 
L 98.173427 95.268205 
L 103.376224 95.268205 
L 103.376224 93.031275 
L 108.579021 93.031275 
L 108.579021 92.606589 
L 113.781818 92.606589 
L 113.781818 87.918153 
L 118.984615 87.918153 
L 118.984615 89.602098 
L 124.187413 89.602098 
L 124.187413 93.718978 
L 129.39021 93.718978 
L 129.39021 97.78348 
L 134.593007 97.78348 
L 134.593007 100.596446 
L 139.795804 100.596446 
L 139.795804 103.732709 
L 144.998601 103.732709 
L 144.998601 110.997619 
L 150.201399 110.997619 
L 150.201399 106.966355 
L 155.404196 106.966355 
L 155.404196 111.249583 
L 160.606993 111.249583 
L 160.606993 113.920999 
L 165.80979 113.920999 
L 165.80979 115.870741 
L 171.012587 115.870741 
L 171.012587 119.925448 
L 176.215385 119.925448 
L 176.215385 122.410156 
L 181.418182 122.410156 
L 181.418182 125.607527 
L 186.620979 125.607527 
L 186.620979 128.035064 
L 191.823776 128.035064 
L 191.823776 131.995009 
L 197.026573 131.995009 
L 197.026573 135.205203 
L 202.229371 135.205203 
L 202.229371 138.268527 
L 207.432168 138.268527 
L 207.432168 141.611719 
L 212.634965 141.611719 
L 212.634965 145.155213 
L 217.837762 145.155213 
L 217.837762 148.478915 
L 223.040559 148.478915 
L 223.040559 151.837955 
L 228.243357 151.837955 
L 228.243357 155.22559 
L 233.446154 155.22559 
L 233.446154 159.181154 
L 238.648951 159.181154 
L 238.648951 164.041256 
L 243.851748 164.041256 
L 243.851748 167.404307 
L 249.054545 167.404307 
" clip-path="url(#pe043091a37)" style="fill: none; stroke: #f03e3e; stroke-linecap: square"/>
   </g>
   <g id="line2d_9">
    <path d="M 46.145455 182.725576 
L 46.145455 147.627968 
L 51.348252 147.627968 
L 51.348252 78.810341 
L 56.551049 78.810341 
L 56.551049 71.65561 
L 61.753846 71.65561 
L 61.753846 75.424277 
L 66.956643 75.424277 
L 66.956643 76.019329 
L 72.159441 76.019329 
L 72.159441 73.391585 
L 77.362238 73.391585 
L 77.362238 56.554589 
L 82.565035 56.554589 
L 82.565035 65.473262 
L 87.767832 65.473262 
L 87.767832 71.766078 
L 92.970629 71.766078 
L 92.970629 60.884522 
L 98.173427 60.884522 
L 98.173427 69.623679 
L 103.376224 69.623679 
L 103.376224 71.259403 
L 108.579021 71.259403 
L 108.579021 70.253684 
L 113.781818 70.253684 
L 113.781818 64.762285 
L 118.984615 64.762285 
L 118.984615 67.907984 
L 124.187413 67.907984 
L 124.187413 70.502643 
L 129.39021 70.502643 
L 129.39021 75.810984 
L 134.593007 75.810984 
L 134.593007 79.72397 
L 139.795804 79.72397 
L 139.795804 83.338824 
L 144.998601 83.338824 
L 144.998601 90.614954 
L 150.201399 90.614954 
L 150.201399 87.111114 
L 155.404196 87.111114 
L 155.404196 92.332412 
L 160.606993 92.332412 
L 160.606993 95.740817 
L 165.80979 95.740817 
L 165.80979 99.62498 
L 171.012587 99.62498 
L 171.012587 103.645023 
L 176.215385 103.645023 
L 176.215385 107.302956 
L 181.418182 107.302956 
L 181.418182 110.700042 
L 186.620979 110.700042 
L 186.620979 113.90768 
L 191.823776 113.90768 
L 191.823776 118.899546 
L 197.026573 118.899546 
L 197.026573 123.11075 
L 202.229371 123.11075 
L 202.229371 126.728696 
L 207.432168 126.728696 
L 207.432168 130.784671 
L 212.634965 130.784671 
L 212.634965 135.179906 
L 217.837762 135.179906 
L 217.837762 139.386871 
L 223.040559 139.386871 
L 223.040559 143.576272 
L 228.243357 143.576272 
L 228.243357 147.882393 
L 233.446154 147.882393 
L 233.446154 152.783852 
L 238.648951 152.783852 
L 238.648951 158.833775 
L 243.851748 158.833775 
L 243.851748 163.099387 
L 249.054545 163.099387 
" clip-path="url(#pe043091a37)" style="fill: none; stroke: #e03131; stroke-linecap: square"/>
   </g>
   <g id="line2d_10">
    <path d="M 46.145455 182.425749 
L 46.145455 143.803104 
L 51.348252 143.803104 
L 51.348252 56.824809 
L 56.551049 56.824809 
L 56.551049 50.701031 
L 61.753846 50.701031 
L 61.753846 58.24506 
L 66.956643 58.24506 
L 66.956643 52.627665 
L 72.159441 52.627665 
L 72.159441 51.313564 
L 77.362238 51.313564 
L 77.362238 33.48 
L 82.565035 33.48 
L 82.565035 43.181305 
L 87.767832 43.181305 
L 87.767832 46.881706 
L 92.970629 46.881706 
L 92.970629 35.140532 
L 98.173427 35.140532 
L 98.173427 45.632244 
L 103.376224 45.632244 
L 103.376224 49.610201 
L 108.579021 49.610201 
L 108.579021 47.831393 
L 113.781818 47.831393 
L 113.781818 40.996417 
L 118.984615 40.996417 
L 118.984615 48.272302 
L 124.187413 48.272302 
L 124.187413 46.918101 
L 129.39021 46.918101 
L 129.39021 53.811662 
L 134.593007 53.811662 
L 134.593007 60.703035 
L 139.795804 60.703035 
L 139.795804 63.302209 
L 144.998601 63.302209 
L 144.998601 69.93539 
L 150.201399 69.93539 
L 150.201399 67.134188 
L 155.404196 67.134188 
L 155.404196 74.146068 
L 160.606993 74.146068 
L 160.606993 77.461517 
L 165.80979 77.461517 
L 165.80979 83.472227 
L 171.012587 83.472227 
L 171.012587 87.21573 
L 176.215385 87.21573 
L 176.215385 92.044983 
L 181.418182 92.044983 
L 181.418182 95.708614 
L 186.620979 95.708614 
L 186.620979 99.674971 
L 191.823776 99.674971 
L 191.823776 105.734537 
L 197.026573 105.734537 
L 197.026573 110.840675 
L 202.229371 110.840675 
L 202.229371 115.241478 
L 207.432168 115.241478 
L 207.432168 119.901784 
L 212.634965 119.901784 
L 212.634965 125.265563 
L 217.837762 125.265563 
L 217.837762 130.326846 
L 223.040559 130.326846 
L 223.040559 135.228026 
L 228.243357 135.228026 
L 228.243357 140.537732 
L 233.446154 140.537732 
L 233.446154 146.382989 
L 238.648951 146.382989 
L 238.648951 153.608304 
L 243.851748 153.608304 
L 243.851748 158.79784 
L 249.054545 158.79784 
" clip-path="url(#pe043091a37)" style="fill: none; stroke: #c92a2a; stroke-linecap: square"/>
   </g>
   <g id="matplotlib.axis_1">
    <g id="xtick_1">
     <g id="line2d_11">
      <defs>
       <path id="mf388adb3b7" d="M 0 0 
L 0 3.5 
" style="stroke: #000000; stroke-width: 0.8"/>
      </defs>
      <g>
       <use xlink:href="#mf388adb3b7" x="46.145455" y="184.68" style="stroke: #000000; stroke-width: 0.8"/>
      </g>
     </g>
     <g id="text_1">
      <!-- $0$ -->
      <g transform="translate(43.145455 200.134375) scale(0.12 -0.12)">
       <defs>
        <path id="Cmr10-30" d="M 1600 -141 
Q 816 -141 533 504 
Q 250 1150 250 2041 
Q 250 2597 351 3087 
Q 453 3578 754 3920 
Q 1056 4263 1600 4263 
Q 2022 4263 2290 4056 
Q 2559 3850 2700 3523 
Q 2841 3197 2892 2823 
Q 2944 2450 2944 2041 
Q 2944 1491 2842 1011 
Q 2741 531 2444 195 
Q 2147 -141 1600 -141 
z
M 1600 25 
Q 1956 25 2131 390 
Q 2306 756 2347 1200 
Q 2388 1644 2388 2144 
Q 2388 2625 2347 3031 
Q 2306 3438 2132 3767 
Q 1959 4097 1600 4097 
Q 1238 4097 1063 3765 
Q 888 3434 847 3029 
Q 806 2625 806 2144 
Q 806 1788 823 1472 
Q 841 1156 916 820 
Q 991 484 1158 254 
Q 1325 25 1600 25 
z
" transform="scale(0.015625)"/>
       </defs>
       <use xlink:href="#Cmr10-30" transform="translate(0 0.390625)"/>
      </g>
     </g>
    </g>
    <g id="xtick_2">
     <g id="line2d_12">
      <g>
       <use xlink:href="#mf388adb3b7" x="147.6" y="184.68" style="stroke: #000000; stroke-width: 0.8"/>
      </g>
     </g>
     <g id="text_2">
      <!-- $\pi/2$ -->
      <g transform="translate(138.18 200.68) scale(0.12 -0.12)">
       <defs>
        <path id="Cmmi10-bc" d="M 647 109 
Q 647 144 672 213 
Q 850 584 1004 942 
Q 1159 1300 1282 1639 
Q 1406 1978 1509 2363 
L 1100 2363 
Q 866 2363 662 2216 
Q 459 2069 325 1844 
Q 313 1819 288 1819 
L 213 1819 
Q 153 1819 153 1881 
Q 153 1894 166 1919 
Q 375 2275 614 2517 
Q 853 2759 1153 2759 
L 3475 2759 
Q 3541 2759 3587 2715 
Q 3634 2672 3634 2597 
Q 3634 2503 3567 2433 
Q 3500 2363 3406 2363 
L 2591 2363 
Q 2488 1859 2478 1381 
Q 2478 766 2694 269 
Q 2713 231 2713 191 
Q 2713 122 2672 62 
Q 2631 3 2567 -34 
Q 2503 -72 2431 -72 
Q 2263 -72 2200 203 
Q 2138 478 2138 738 
Q 2138 1103 2200 1442 
Q 2263 1781 2400 2363 
L 1703 2363 
Q 1197 313 1094 103 
Q 1003 -72 844 -72 
Q 766 -72 706 -20 
Q 647 31 647 109 
z
" transform="scale(0.015625)"/>
        <path id="Cmmi10-3d" d="M 359 -1472 
Q 359 -1453 366 -1447 
L 2591 4722 
Q 2603 4759 2634 4779 
Q 2666 4800 2706 4800 
Q 2763 4800 2798 4765 
Q 2834 4731 2834 4672 
L 2834 4647 
L 609 -1522 
Q 572 -1600 488 -1600 
Q 434 -1600 396 -1562 
Q 359 -1525 359 -1472 
z
" transform="scale(0.015625)"/>
        <path id="Cmr10-32" d="M 319 0 
L 319 172 
Q 319 188 331 206 
L 1325 1306 
Q 1550 1550 1690 1715 
Q 1831 1881 1968 2097 
Q 2106 2313 2186 2536 
Q 2266 2759 2266 3009 
Q 2266 3272 2169 3511 
Q 2072 3750 1880 3894 
Q 1688 4038 1416 4038 
Q 1138 4038 916 3870 
Q 694 3703 603 3438 
Q 628 3444 672 3444 
Q 816 3444 917 3347 
Q 1019 3250 1019 3097 
Q 1019 2950 917 2848 
Q 816 2747 672 2747 
Q 522 2747 420 2851 
Q 319 2956 319 3097 
Q 319 3338 409 3548 
Q 500 3759 670 3923 
Q 841 4088 1055 4175 
Q 1269 4263 1509 4263 
Q 1875 4263 2190 4108 
Q 2506 3953 2690 3670 
Q 2875 3388 2875 3009 
Q 2875 2731 2753 2481 
Q 2631 2231 2440 2026 
Q 2250 1822 1953 1562 
Q 1656 1303 1563 1216 
L 838 519 
L 1453 519 
Q 1906 519 2211 526 
Q 2516 534 2534 550 
Q 2609 631 2688 1141 
L 2875 1141 
L 2694 0 
L 319 0 
z
" transform="scale(0.015625)"/>
       </defs>
       <use xlink:href="#Cmmi10-bc"/>
       <use xlink:href="#Cmmi10-3d" transform="translate(56.982422 0)"/>
       <use xlink:href="#Cmr10-32" transform="translate(106.982422 0)"/>
      </g>
     </g>
    </g>
    <g id="xtick_3">
     <g id="line2d_13">
      <g>
       <use xlink:href="#mf388adb3b7" x="249.054545" y="184.68" style="stroke: #000000; stroke-width: 0.8"/>
      </g>
     </g>
     <g id="text_3">
      <!-- $\pi$ -->
      <g transform="translate(245.634545 200.134375) scale(0.12 -0.12)">
       <use xlink:href="#Cmmi10-bc" transform="translate(0 0.890625)"/>
      </g>
     </g>
    </g>
    <g id="text_4">
     <!-- $s_c$ -->
     <g transform="translate(141.509626 219.941588) scale(0.16 -0.16)">
      <defs>
       <path id="CMMI12-73" d="M 1459 1280 
C 1568 1261 1741 1223 1779 1216 
C 1862 1192 2150 1090 2150 783 
C 2150 586 1971 70 1229 70 
C 1094 70 614 70 486 436 
C 742 404 870 603 870 745 
C 870 880 781 950 653 950 
C 512 950 326 841 326 552 
C 326 173 710 -64 1222 -64 
C 2195 -64 2483 651 2483 984 
C 2483 1079 2483 1258 2278 1462 
C 2118 1616 1965 1648 1619 1718 
C 1446 1756 1171 1814 1171 2101 
C 1171 2229 1286 2689 1894 2689 
C 2163 2689 2426 2589 2490 2368 
C 2208 2368 2195 2125 2195 2119 
C 2195 1984 2317 1946 2374 1946 
C 2464 1946 2643 2015 2643 2281 
C 2643 2545 2400 2816 1901 2816 
C 1062 2816 838 2160 838 1899 
C 838 1414 1312 1312 1459 1280 
z
" transform="scale(0.015625)"/>
       <path id="CMMI12-63" d="M 2502 2431 
C 2381 2431 2323 2431 2234 2355 
C 2195 2323 2125 2227 2125 2125 
C 2125 1997 2221 1920 2342 1920 
C 2496 1920 2669 2044 2669 2292 
C 2669 2588 2374 2816 1933 2816 
C 1094 2816 256 1903 256 996 
C 256 441 602 -64 1254 -64 
C 2125 -64 2675 622 2675 706 
C 2675 744 2637 776 2611 776 
C 2592 776 2586 770 2528 713 
C 2118 162 1510 64 1267 64 
C 826 64 685 446 685 764 
C 685 988 794 1605 1024 2039 
C 1190 2338 1536 2682 1939 2682 
C 2022 2682 2374 2682 2502 2431 
z
" transform="scale(0.015625)"/>
      </defs>
      <use xlink:href="#CMMI12-73" transform="scale(0.996264)"/>
      <use xlink:href="#CMMI12-63" transform="translate(45.950048 -14.943915) scale(0.697382)"/>
     </g>
    </g>
   </g>
   <g id="matplotlib.axis_2">
    <g id="ytick_1">
     <g id="line2d_14">
      <defs>
       <path id="md6d51d7eb4" d="M 0 0 
L -3.5 0 
" style="stroke: #000000; stroke-width: 0.8"/>
      </defs>
      <g>
       <use xlink:href="#md6d51d7eb4" x="46.145455" y="147.188888" style="stroke: #000000; stroke-width: 0.8"/>
      </g>
     </g>
     <g id="text_5">
      <!-- 0.5 -->
      <g transform="translate(22.270455 151.416075) scale(0.12 -0.12)">
       <defs>
        <path id="SFPro-Regular-30" d="M 1938 -75 
Q 2456 -75 2828 209 
Q 3200 494 3398 1016 
Q 3597 1538 3597 2253 
L 3597 2259 
Q 3597 2975 3398 3497 
Q 3200 4019 2828 4301 
Q 2456 4584 1938 4584 
Q 1419 4584 1048 4301 
Q 678 4019 481 3497 
Q 284 2975 284 2259 
L 284 2253 
Q 284 1538 481 1016 
Q 678 494 1048 209 
Q 1419 -75 1938 -75 
z
M 1938 416 
Q 1594 416 1350 639 
Q 1106 863 978 1275 
Q 850 1688 850 2253 
L 850 2259 
Q 850 2825 978 3236 
Q 1106 3647 1350 3869 
Q 1594 4091 1938 4091 
Q 2281 4091 2526 3869 
Q 2772 3647 2901 3236 
Q 3031 2825 3031 2259 
L 3031 2253 
Q 3031 1688 2901 1275 
Q 2772 863 2526 639 
Q 2281 416 1938 416 
z
" transform="scale(0.015625)"/>
        <path id="SFPro-Regular-2e" d="M 688 -44 
Q 838 -44 941 59 
Q 1044 163 1044 313 
Q 1044 463 941 566 
Q 838 669 688 669 
Q 538 669 434 566 
Q 331 463 331 313 
Q 331 163 434 59 
Q 538 -44 688 -44 
z
" transform="scale(0.015625)"/>
        <path id="SFPro-Regular-35" d="M 1916 -75 
Q 2384 -75 2746 120 
Q 3109 316 3315 662 
Q 3522 1009 3522 1459 
L 3522 1466 
Q 3522 1900 3330 2236 
Q 3138 2572 2802 2765 
Q 2466 2959 2031 2959 
Q 1813 2959 1619 2906 
Q 1425 2853 1269 2750 
Q 1113 2647 1006 2494 
L 994 2494 
L 1147 4009 
L 3266 4009 
L 3266 4509 
L 684 4509 
L 453 1938 
L 950 1938 
Q 994 2016 1048 2081 
Q 1103 2147 1163 2203 
Q 1313 2341 1508 2408 
Q 1703 2475 1931 2475 
Q 2231 2475 2462 2344 
Q 2694 2213 2826 1983 
Q 2959 1753 2959 1456 
L 2959 1450 
Q 2959 1147 2828 914 
Q 2697 681 2462 550 
Q 2228 419 1922 419 
Q 1653 419 1437 522 
Q 1222 625 1087 804 
Q 953 984 925 1206 
L 922 1231 
L 369 1231 
L 372 1197 
Q 406 831 609 543 
Q 813 256 1148 90 
Q 1484 -75 1916 -75 
z
" transform="scale(0.015625)"/>
       </defs>
       <use xlink:href="#SFPro-Regular-30"/>
       <use xlink:href="#SFPro-Regular-2e" x="60.644531"/>
       <use xlink:href="#SFPro-Regular-35" x="82.128906"/>
      </g>
     </g>
    </g>
    <g id="ytick_2">
     <g id="line2d_15">
      <g>
       <use xlink:href="#md6d51d7eb4" x="46.145455" y="109.697776" style="stroke: #000000; stroke-width: 0.8"/>
      </g>
     </g>
     <g id="text_6">
      <!-- 1.0 -->
      <g transform="translate(23.969205 113.924963) scale(0.12 -0.12)">
       <defs>
        <path id="SFPro-Regular-31" d="M 1516 0 
L 2059 0 
L 2059 4509 
L 1509 4509 
L 309 3647 
L 309 3081 
L 1503 3913 
L 1516 3913 
L 1516 0 
z
" transform="scale(0.015625)"/>
       </defs>
       <use xlink:href="#SFPro-Regular-31"/>
       <use xlink:href="#SFPro-Regular-2e" x="44.335938"/>
       <use xlink:href="#SFPro-Regular-30" x="65.820312"/>
      </g>
     </g>
    </g>
    <g id="ytick_3">
     <g id="line2d_16">
      <g>
       <use xlink:href="#md6d51d7eb4" x="46.145455" y="72.206663" style="stroke: #000000; stroke-width: 0.8"/>
      </g>
     </g>
     <g id="text_7">
      <!-- 1.5 -->
      <g transform="translate(24.22608 76.433851) scale(0.12 -0.12)">
       <use xlink:href="#SFPro-Regular-31"/>
       <use xlink:href="#SFPro-Regular-2e" x="44.335938"/>
       <use xlink:href="#SFPro-Regular-35" x="65.820312"/>
      </g>
     </g>
    </g>
    <g id="ytick_4">
     <g id="line2d_17">
      <g>
       <use xlink:href="#md6d51d7eb4" x="46.145455" y="34.715551" style="stroke: #000000; stroke-width: 0.8"/>
      </g>
     </g>
     <g id="text_8">
      <!-- 2.0 -->
      <g transform="translate(22.499205 38.942739) scale(0.12 -0.12)">
       <defs>
        <path id="SFPro-Regular-32" d="M 366 0 
L 3341 0 
L 3341 500 
L 972 500 
L 1138 344 
L 1138 691 
L 972 344 
L 2209 1613 
Q 2625 2038 2853 2327 
Q 3081 2616 3173 2847 
Q 3266 3078 3266 3325 
L 3266 3331 
Q 3266 3684 3083 3968 
Q 2900 4253 2581 4418 
Q 2263 4584 1853 4584 
Q 1434 4584 1089 4407 
Q 744 4231 541 3923 
Q 338 3616 338 3225 
L 338 3206 
L 881 3206 
L 881 3222 
Q 881 3466 1009 3662 
Q 1138 3859 1359 3976 
Q 1581 4094 1863 4094 
Q 2109 4094 2298 3992 
Q 2488 3891 2595 3712 
Q 2703 3534 2703 3303 
L 2703 3297 
Q 2703 3109 2642 2943 
Q 2581 2778 2420 2570 
Q 2259 2363 1953 2044 
L 366 388 
L 366 0 
z
" transform="scale(0.015625)"/>
       </defs>
       <use xlink:href="#SFPro-Regular-32"/>
       <use xlink:href="#SFPro-Regular-2e" x="56.591797"/>
       <use xlink:href="#SFPro-Regular-30" x="78.076172"/>
      </g>
     </g>
    </g>
    <g id="text_9">
     <!-- $v_{\rm full}(s_c)$ -->
     <g transform="translate(9.694944 141.7308) rotate(-90) scale(0.16 -0.16)">
      <defs>
       <path id="CMMI12-76" d="M 2925 2389 
C 2925 2791 2720 2816 2669 2816 
C 2515 2816 2374 2663 2374 2535 
C 2374 2459 2419 2414 2445 2389 
C 2509 2331 2675 2159 2675 1827 
C 2675 1558 2291 64 1523 64 
C 1133 64 1056 390 1056 626 
C 1056 945 1203 1392 1376 1852 
C 1478 2114 1504 2178 1504 2305 
C 1504 2574 1312 2816 998 2816 
C 410 2816 173 1890 173 1839 
C 173 1814 198 1782 243 1782 
C 301 1782 307 1807 333 1897 
C 486 2446 736 2689 979 2689 
C 1037 2689 1146 2689 1146 2478 
C 1146 2312 1075 2127 979 1884 
C 672 1067 672 869 672 715 
C 672 575 691 313 890 134 
C 1120 -64 1440 -64 1498 -64 
C 2560 -64 2925 2024 2925 2389 
z
" transform="scale(0.015625)"/>
       <path id="CMR17-66" d="M 979 2560 
L 1709 2560 
L 1709 2725 
L 966 2725 
L 966 3494 
C 966 4022 1235 4352 1510 4352 
C 1594 4352 1690 4327 1754 4282 
C 1702 4269 1568 4225 1568 4067 
C 1568 3901 1696 3850 1786 3850 
C 1875 3850 2003 3901 2003 4067 
C 2003 4308 1773 4454 1517 4454 
C 1152 4454 653 4156 653 3481 
L 653 2725 
L 141 2725 
L 141 2560 
L 653 2560 
L 653 427 
C 653 184 627 153 218 153 
L 218 -13 
C 371 0 666 0 832 0 
C 1018 0 1344 0 1517 -13 
L 1517 153 
C 1056 153 979 153 979 439 
L 979 2560 
z
" transform="scale(0.015625)"/>
       <path id="CMR17-75" d="M 1882 2693 
L 1882 2528 
C 2259 2528 2317 2489 2317 2186 
L 2317 1032 
C 2317 500 2029 38 1555 38 
C 1030 38 986 348 986 678 
L 986 2763 
L 211 2693 
L 211 2528 
C 467 2528 640 2528 646 2274 
L 646 1058 
C 646 633 646 361 813 183 
C 896 101 1056 -64 1517 -64 
C 2061 -64 2272 377 2323 506 
L 2330 506 
L 2330 -63 
L 3091 -63 
L 3091 128 
C 2714 128 2656 166 2656 473 
L 2656 2763 
L 1882 2693 
z
" transform="scale(0.015625)"/>
       <path id="CMR17-6c" d="M 979 4396 
L 218 4326 
L 218 4160 
C 595 4160 653 4122 653 3817 
L 653 426 
C 653 184 627 153 218 153 
L 218 -13 
C 371 0 653 0 813 0 
C 979 0 1261 0 1414 -13 
L 1414 153 
C 1005 153 979 178 979 426 
L 979 4396 
z
" transform="scale(0.015625)"/>
       <path id="CMR17-28" d="M 1958 -1561 
C 1958 -1555 1958 -1542 1939 -1523 
C 1645 -1224 858 -407 858 1581 
C 858 3569 1632 4379 1946 4697 
C 1946 4704 1958 4717 1958 4736 
C 1958 4755 1939 4768 1914 4768 
C 1843 4768 1299 4296 986 3594 
C 666 2887 576 2199 576 1588 
C 576 1128 621 351 1005 -471 
C 1312 -1135 1837 -1600 1914 -1600 
C 1946 -1600 1958 -1587 1958 -1561 
z
" transform="scale(0.015625)"/>
       <path id="CMR17-29" d="M 1683 1581 
C 1683 2040 1638 2817 1254 3639 
C 947 4303 422 4768 346 4768 
C 326 4768 301 4761 301 4729 
C 301 4717 307 4710 314 4697 
C 621 4378 1402 3568 1402 1584 
C 1402 -407 627 -1217 314 -1537 
C 307 -1549 301 -1556 301 -1568 
C 301 -1600 326 -1600 346 -1600 
C 416 -1600 960 -1128 1274 -426 
C 1594 281 1683 969 1683 1581 
z
" transform="scale(0.015625)"/>
      </defs>
      <use xlink:href="#CMMI12-76" transform="scale(0.996264)"/>
      <use xlink:href="#CMR17-66" transform="translate(47.160581 -14.943915) scale(0.697382)"/>
      <use xlink:href="#CMR17-75" transform="translate(66.391945 -14.943915) scale(0.697382)"/>
      <use xlink:href="#CMR17-6c" transform="translate(102.018553 -14.943915) scale(0.697382)"/>
      <use xlink:href="#CMR17-6c" transform="translate(119.428212 -14.943915) scale(0.697382)"/>
      <use xlink:href="#CMR17-28" transform="translate(137.336003 0) scale(0.996264)"/>
      <use xlink:href="#CMMI12-73" transform="translate(172.616771 0) scale(0.996264)"/>
      <use xlink:href="#CMMI12-63" transform="translate(218.566819 -14.943915) scale(0.697382)"/>
      <use xlink:href="#CMR17-29" transform="translate(248.453082 0) scale(0.996264)"/>
     </g>
    </g>
   </g>
   <g id="patch_3">
    <path d="M 46.145455 192.24 
L 46.145455 25.92 
" style="fill: none; stroke: #000000; stroke-width: 0.8; stroke-linejoin: miter; stroke-linecap: square"/>
   </g>
   <g id="patch_4">
    <path d="M 36 184.68 
L 259.2 184.68 
" style="fill: none; stroke: #000000; stroke-width: 0.8; stroke-linejoin: miter; stroke-linecap: square"/>
   </g>
  </g>
 </g>
 <defs>
  <clipPath id="pe043091a37">
   <rect x="36" y="25.92" width="223.2" height="166.32"/>
  </clipPath>
 </defs>
</svg>
